<svg xmlns="http://www.w3.org/2000/svg" viewBox="0 0 64 64">
  <rect width="64" height="64" rx="16" fill="#f5f1e8"/>
  <circle cx="32" cy="32" r="28" fill="#fffaf2"/>
  <path d="M32 14c-6.8 0-11.5 5.1-11.5 10.9 0 4.5 3.2 7.6 6.6 7.6 1.8 0 3.4-.8 4.9-2.3 1.5 1.5 3.1 2.3 4.9 2.3 3.4 0 6.6-3.1 6.6-7.6C43.5 19.1 38.8 14 32 14Z" fill="#b99cc9"/>
  <path d="M20.4 27.5c-5.2 1.9-7.9 6.4-6.4 10.8 1.5 4.2 5.9 6.2 9.9 4.8 3.7-1.4 5.8-5.1 5.1-8.8-3 .5-5.9-1.1-8.6-6.8Z" fill="#dbc9e5"/>
  <path d="M43.6 27.5c5.2 1.9 7.9 6.4 6.4 10.8-1.5 4.2-5.9 6.2-9.9 4.8-3.7-1.4-5.8-5.1-5.1-8.8 3 .5 5.9-1.1 8.6-6.8Z" fill="#dbc9e5"/>
  <path d="M32 31.5c-4.8 5.3-5.5 11.7-1.3 15.7.5.5 1 .9 1.3 1.1.3-.2.8-.6 1.3-1.1 4.2-4 3.5-10.4-1.3-15.7Z" fill="#66875b"/>
  <circle cx="32" cy="34.8" r="4.9" fill="#2f4f3e"/>
  <path d="M21.5 51c7-3.1 14-3.1 21 0" fill="none" stroke="#2f4f3e" stroke-width="3.2" stroke-linecap="round"/>
</svg>
